<?xml version="1.0" standalone="no"?>
<!DOCTYPE svg PUBLIC "-//W3C//DTD SVG 1.1//EN" "http://www.w3.org/Graphics/SVG/1.1/DTD/svg11.dtd" >
<!--
2013-9-30: Created.
-->
<svg>
<metadata>
Created by iconfont
</metadata>
<defs>

<font id="iconfont" horiz-adv-x="1024" >
  <font-face
    font-family="iconfont"
    font-weight="500"
    font-stretch="normal"
    units-per-em="1024"
    ascent="896"
    descent="-128"
  />
    <missing-glyph />
    
    <glyph glyph-name="erji1" unicode="&#59046;" d="M1113.165 276.303v-353.455c0-30.044-25.529-54.399-57.031-54.399h-171.092c-31.502 0-57.067 24.355-57.067 54.399v353.455c0 30.044 25.565 54.399 57.067 54.399h155.092c-20.16 238.967-218.345 426.628-460.263 426.628-241.882 0-440.067-187.66-460.263-426.628h153.919c31.359 0 56.782-24.355 56.782-54.399v-353.455c0-30.044-25.422-54.399-56.782-54.399h-170.452c-31.359 0-56.817 24.355-56.817 54.399v353.455c0 29.937 25.315 54.222 56.569 54.364l-56.604-71.11c0.391 321.099 249.384 568.778 533.507 568.884h0.391c284.123-0.107 533.152-247.18 532.761-533.329l-56.498 35.556c31.395-0.142 56.782-24.427 56.782-54.364zM117.333-60.441h142.221v319.998h-142.221v-319.998zM1041.77 259.556h-142.221v-319.998h142.221v319.998z"  horiz-adv-x="1138" />

    
    <glyph glyph-name="icon122" unicode="&#58999;" d="M370.719276 431.081295l-188.370205 0c-51.928696 0-94.186126 42.22366-94.186126 94.191242l0 188.370205c0 51.928696 42.256406 94.186126 94.186126 94.186126l188.370205 0c51.951209 0 94.190219-42.256406 94.190219-94.186126l0-188.370205C464.909495 473.304955 422.670485 431.081295 370.719276 431.081295L370.719276 431.081295 370.719276 431.081295zM417.811828 713.642742c0 25.964348-21.128203 47.092551-47.092551 47.092551l-188.370205 0c-25.948999 0-47.092551-21.128203-47.092551-47.092551l0-188.370205c0-25.986861 21.143553-47.092551 47.092551-47.092551l188.370205 0c25.964348 0 47.092551 21.106714 47.092551 47.092551L417.811828 713.642742 417.811828 713.642742 417.811828 713.642742zM370.719276-39.828868l-188.370205 0c-51.928696 0-94.186126 42.207287-94.186126 94.169753l0 188.370205c0 51.928696 42.256406 94.184079 94.186126 94.184079l188.370205 0c51.951209 0 94.190219-42.255383 94.190219-94.184079l0-188.370205C464.909495 2.373303 422.670485-39.828868 370.719276-39.828868L370.719276-39.828868 370.719276-39.828868zM417.811828 242.71109c0 25.964348-21.128203 47.092551-47.092551 47.092551l-188.370205 0c-25.948999 0-47.092551-21.128203-47.092551-47.092551l0-188.370205c0-25.980721 21.143553-47.092551 47.092551-47.092551l188.370205 0c25.964348 0 47.092551 21.11183 47.092551 47.092551L417.811828 242.71109 417.811828 242.71109 417.811828 242.71109zM912.326595 124.839519c-13.015432 0-23.583115 10.491958-23.583115 23.508413l0 94.362134c0 25.964348-21.128203 47.092551-47.092551 47.092551l-188.370205 0c-25.948999 0-47.092551-21.128203-47.092551-47.092551l0-188.370205c0-25.980721 21.143553-47.092551 47.092551-47.092551l94.361111 0c12.994965 0 23.547299-10.583033 23.547299-23.584138 0-12.964266-10.55131-23.49204-23.547299-23.49204l-94.361111 0c-51.928696 0-94.186126 42.207287-94.186126 94.169753l0 188.370205c0 51.928696 42.256406 94.184079 94.186126 94.184079l188.370205 0c51.945069 0 94.186126-42.255383 94.186126-94.184079l0-94.362134C935.837054 135.331477 925.290861 124.839519 912.326595 124.839519L912.326595 124.839519 912.326595 124.839519zM841.650929 431.081295l-188.370205 0c-51.928696 0-94.186126 42.22366-94.186126 94.191242l0 188.370205c0 51.928696 42.256406 94.186126 94.186126 94.186126l188.370205 0c51.945069 0 94.186126-42.256406 94.186126-94.186126l0-188.370205C935.837054 473.304955 893.597021 431.081295 841.650929 431.081295L841.650929 431.081295 841.650929 431.081295zM888.744503 713.642742c0 25.964348-21.128203 47.092551-47.092551 47.092551l-188.370205 0c-25.948999 0-47.092551-21.128203-47.092551-47.092551l0-188.370205c0-25.986861 21.143553-47.092551 47.092551-47.092551l188.370205 0c25.964348 0 47.092551 21.106714 47.092551 47.092551L888.744503 713.642742 888.744503 713.642742 888.744503 713.642742zM888.744503 713.642742"  horiz-adv-x="1024" />

    
    <glyph glyph-name="menu" unicode="&#58928;" d="M121.133056 518.144c66.34496 0 120.129536-53.434368 120.129536-119.349248s-53.784576-119.349248-120.129536-119.349248S1.001472 332.877824 1.001472 398.794752 54.786048 518.144 121.133056 518.144zM501.542912 518.144c66.34496 0 120.129536-53.434368 120.129536-119.349248s-53.784576-119.349248-120.129536-119.349248-120.129536 53.434368-120.129536 119.349248 53.784576 119.349248 120.129536 119.349248zM901.978112 518.144c66.34496 0 120.129536-53.434368 120.129536-119.349248s-53.784576-119.349248-120.129536-119.349248-120.129536 53.434368-120.129536 119.349248 53.782528 119.349248 120.129536 119.349248z"  horiz-adv-x="1024" />

    
    <glyph glyph-name="liebiaoxunhuan1" unicode="&#59016;" d="M875.78112 581.34528c-52.76672 52.7616-122.87488 81.792-197.39648 81.792H385.48992v56.0128c0 17.86368-12.24704 24.56064-27.3664 14.86336l-134.8096-87.02464c-15.05792-9.75872-14.92992-25.39008 0.32256-34.83136l134.23104-83.12832c15.12448-9.4464 27.62752-2.48832 27.62752 15.37024V600.22784h292.96128c119.17312 0 216.15104-97.03424 216.15104-216.14592 0-19.77856-2.61632-39.30112-7.84896-58.05568a31.34976 31.34976 0 0 1 21.94432-38.66624 27.67872 27.67872 0 0 1 8.42752-1.27488 31.5904 31.5904 0 0 1 30.30528 23.02976 281.97376 281.97376 0 0 1 10.01472 74.90048c-0.01024 74.5216-29.03552 144.70144-81.66912 197.32992z m-51.9936-425.472l-134.1696 83.13344c-15.25248 9.44128-27.75552 2.54976-27.75552-15.38048V167.936H345.6768c-119.17312 0-216.14592 96.96768-216.14592 216.15104 0 41.72288 11.9296 82.23744 34.45248 117.13024a31.57504 31.57504 0 0 1-9.31328 43.57632c-14.60736 9.37984-34.13504 5.16608-43.50976-9.37984A278.31296 278.31296 0 0 1 66.56 384.02048c0-74.57792 29.0304-144.63488 81.72544-197.3248 52.69504-52.76672 122.81344-81.792 197.39136-81.792h316.24704v-56.0128c0-17.93024 12.30848-24.6272 27.37152-14.86848l134.8096 87.08608c15.04768 9.69728 14.9248 25.32864-0.31744 34.7648z"  horiz-adv-x="1024" />

    
    <glyph glyph-name="music" unicode="&#58927;" d="M296.4 612.6v-398.9c-20.6 4.5-43.2 3.6-66.9-7.1-34-15.3-58.7-47.5-63.3-84.5-8.1-65.8 42.9-121.7 107.1-121.7 58.1 0 105.3 45.9 107.7 103.3h0.2v407.9l316.2 97.9v-303.2c-20.5 4.5-42.9 3.6-66.5-6.9-34.1-15.1-58.9-47.3-63.7-84.3-8.4-65.9 42.8-122.1 107-122.1 58.1 0 105.3 45.9 107.7 103.3h0.2v523.6c0 30.2-27.8 52.8-57.4 46.5l-390.6-107.3c-22-4.6-37.7-24-37.7-46.5z"  horiz-adv-x="1024" />

    
    <glyph glyph-name="no-results" unicode="&#59010;" d="M512 896C229.688 896 0 666.312 0 384s229.688-512 512-512 512 229.688 512 512S794.312 896 512 896z m0-944C273.813-48 80 145.812 80 384S273.813 816 512 816s432-193.812 432-432-193.812-432-432-432zM805.312 574.625c-12.5 12.5-32.75 12.5-45.25 0l-49.375-49.375-49.375 49.375c-12.5 12.5-32.75 12.5-45.25 0s-12.5-32.75 0-45.25L665.438 480l-49.375-49.375c-12.5-12.5-12.5-32.75 0-45.25 6.25-6.25 14.438-9.375 22.625-9.375s16.375 3.125 22.625 9.375l49.375 49.375 49.375-49.375c6.25-6.25 14.438-9.375 22.625-9.375s16.375 3.125 22.625 9.375c12.5 12.5 12.5 32.75 0 45.25L755.938 480l49.375 49.375c12.499 12.5 12.499 32.75-0.001 45.25zM263.625 385.375L313 434.75l49.375-49.375c6.25-6.25 14.438-9.375 22.625-9.375s16.375 3.125 22.625 9.375c12.5 12.5 12.5 32.75 0 45.25L358.25 480l49.375 49.375c12.5 12.5 12.5 32.75 0 45.25s-32.75 12.5-45.25 0L313 525.25l-49.375 49.375c-12.5 12.5-32.75 12.5-45.25 0s-12.5-32.75 0-45.25L267.75 480l-49.375-49.375c-12.5-12.5-12.5-32.75 0-45.25 6.25-6.25 14.438-9.375 22.625-9.375s16.375 3.125 22.625 9.375zM748.875 253.375l-55.938-24.312L628 281c-10.875 8.625-26.188 9.438-37.75 1.625L512 230.438l-78.25 52.188c-11.562 7.75-26.875 7.125-37.75-1.625l-64.938-51.938-55.938 24.312C259 260.188 240.063 253 233 236.75c-7-16.188 0.438-35.062 16.625-42.125l73.625-32c10.875-4.688 23.438-3.062 32.75 4.375l61.688 49.375 76.562-51a32.151 32.151 0 0 1 35.5 0l76.562 51L668 167a32.083 32.083 0 0 1 20-7c4.312 0 8.688 0.875 12.75 2.625l73.625 32C790.562 201.688 798 220.562 791 236.75c-7.062 16.25-26.125 23.438-42.125 16.625z"  horiz-adv-x="1024" />

    
    <glyph glyph-name="caidan1" unicode="&#58896;" d="M921.6 464.896c-56.32 0-102.4-46.08-102.4-102.4s46.08-102.4 102.4-102.4 102.4 46.08 102.4 102.4-46.08 102.4-102.4 102.4z m-409.6 0c-56.32 0-102.4-46.08-102.4-102.4s46.08-102.4 102.4-102.4 102.4 46.08 102.4 102.4-46.08 102.4-102.4 102.4z m-409.6 0c-56.32 0-102.4-46.08-102.4-102.4s46.08-102.4 102.4-102.4 102.4 46.08 102.4 102.4-46.08 102.4-102.4 102.4z"  horiz-adv-x="1024" />

    
    <glyph glyph-name="jia" unicode="&#58897;" d="M488.727273 407.272727H232.727273v-46.545454h256v-256h46.545454V360.72727299999997h256v46.545454H535.272727V663.272727h-46.545454zM512-128C230.4-128 0 102.39999999999998 0 384S230.4 896 512 896s512-230.4 512-512-230.4-512-512-512z m0 977.454545C256 849.454545 46.545455 640 46.545455 384s209.454545-465.454545 465.454545-465.454545 465.454545 209.454545 465.454545 465.454545S768 849.454545 512 849.454545z"  horiz-adv-x="1024" />

    
    <glyph glyph-name="danquxunhuan" unicode="&#58889;" d="M599.1 29.9h-173c-181.3 0-328.9 147.5-328.9 328.9s147.5 328.9 328.9 328.9h173.1c69.2 0 135.6-21.5 191.9-62.2 7.7-5.6 9.5-16.4 3.9-24.2-5.6-7.8-16.4-9.5-24.2-3.9C720.4 633.8 661 653 599.1 653h-173c-162.2 0-294.2-132-294.2-294.2s132-294.2 294.2-294.2h173.1c162.2 0 294.2 132 294.2 294.2 0 9.6 7.7 17.3 17.3 17.3s17.3-7.7 17.3-17.3c0-181.4-147.5-328.9-328.9-328.9zM678.1 553.8c-8.6 0-16 6.4-17.1 15.1-1.2 9.5 5.5 18.2 15 19.4l114.3 14.8-14.8 114.3c-1.2 9.5 5.5 18.2 15 19.4 9.4 1.3 18.2-5.5 19.4-15l17-131.5c1.2-9.5-5.5-18.2-15-19.4l-131.5-17c-0.8 0-1.6-0.1-2.3-0.1zM530.3 516.1c-9.2-10.4-19.8-19.3-32-26.8-13.1-7.7-25.5-13.1-37.2-16.3v-30.5c25.3 7.4 46.1 19.6 62.4 36.4v-228.1H554V516.1h-23.7z"  horiz-adv-x="1024" />

    
    <glyph glyph-name="bofangye-caozuolan-suijibofang" unicode="&#58898;" d="M760.9 543.8h85.5c22.4 0 34 26.8 18.6 43.1l-72 76.6c-9.7 10.3-25.9 10.8-36.2 1.1-10.3-9.7-10.8-25.9-1.1-36.2l31.4-33.4h-26.3C670 595 610.9 544.6 490 398.5l-8.8-10.6c-102-123.1-154.6-167.3-218.8-167.3h-85c-14.1 0-25.6-11.5-25.6-25.6s11.5-25.6 25.6-25.6h85c86.2 0 145.6 50 258.3 185.9l8.8 10.6c110.1 132.9 162.8 177.9 231.4 177.9zM846.5 222.6H761c-53.2 0-104.7 33.6-169.2 104.3-8.9 9.7-24 10.4-33.8 1.5-9.7-8.9-10.4-24-1.5-33.8 72.8-79.7 134.3-119.9 204.5-119.9h31.2l-35.3-38.5c-8.9-9.7-8.3-24.8 1.4-33.8 9.7-8.9 24.8-8.3 33.8 1.4l72.1 78.5c13.9 15.6 3.1 40.3-17.7 40.3zM177.5 547.5h85c51.5 0 101.9-34.1 167.3-106.9 9.4-10.5 25.6-11.4 36.1-2s11.4 25.6 2 36.1c-74.3 82.8-135.1 123.9-205.4 123.9h-85c-14.1 0-25.6-11.5-25.6-25.6 0-14.1 11.4-25.5 25.6-25.5z"  horiz-adv-x="1024" />

    
    <glyph glyph-name="shangyishou" unicode="&#58882;" d="M511.715 891.511C230.546 891.511 2.62 663.585 2.62 382.415c0-281.156 227.926-509.094 509.095-509.094 281.162 0 509.095 227.938 509.095 509.094 0 281.17-227.933 509.096-509.095 509.096z m-0.284-962.535c-251.048 0-454.56 203.519-454.56 454.566 0 251.036 203.512 454.554 454.56 454.554S965.99 634.577 965.99 383.542c0-251.047-203.511-454.566-454.559-454.566z m155.544 692.583c-9.142 0.049-17.19-4.477-22.013-11.423l-248.703-204.24a26.27 26.27 0 0 1-5.878-4.469c-10.281-10.393-10.281-27.231 0-37.611l0.464-0.377c0.041-0.041 0.078-0.085 0.119-0.126a26.8 26.8 0 0 1 4.697-3.778L645.809 156.7c4.934-6.635 12.816-10.96 21.677-10.999 0.539-0.003 1.073 0.014 1.604 0.041a26.082 26.082 0 0 1 17.872 7.769c0.429 0.433 0.832 0.882 1.225 1.337 3.832 4.329 6.232 9.908 6.448 16.115 0.033 0.657 0.036 1.315 0.022 1.973l-0.226 421.591c-0.078 14.847-12.606 26.953-27.456 27.032zM451.557 382.005l188.697 154.957 0.17-308.093-188.867 153.136z m-96.826 211.872c-14.854 0.08-26.833-11.906-26.754-26.754l0.232-367.439c0.073-14.861 12.178-26.966 27.032-27.031 14.849-0.08 27.251 11.468 27.179 26.316l-0.108 171.444-0.124 196.431c-0.079 14.848-12.608 26.954-27.457 27.033z"  horiz-adv-x="1024" />

    
    <glyph glyph-name="danquxunhuan1" unicode="&#58914;" d="M665.6 705.828571c-14.628571 0-29.257143-10.971429-29.257143-29.257142s10.971429-29.257143 29.257143-29.257143c142.628571 0 256-120.685714 256-263.314286 0-146.285714-113.371429-263.314286-256-263.314286h-164.571429c-14.628571 0-29.257143-10.971429-29.257142-29.257143 0-3.657143 0-7.314286 3.657142-10.971428 0-3.657143 3.657143-7.314286 7.314286-10.971429l76.8-73.142857c3.657143-3.657143 10.971429-7.314286 18.285714-7.314286s14.628571 3.657143 21.942858 7.314286c10.971429 10.971429 10.971429 29.257143 0 40.228572l-29.257143 25.6h95.085714c171.885714 0 310.857143 142.628571 310.857143 321.828571 3.657143 175.542857-138.971429 321.828571-310.857143 321.828571zM373.028571 120.685714c-149.942857 0-270.628571 120.685714-270.628571 263.314286 0 146.285714 120.685714 263.314286 270.628571 263.314286h149.942858c14.628571 3.657143 25.6 14.628571 25.6 29.257143 0 7.314286-3.657143 14.628571-10.971429 21.942857l-76.8 69.485714c-10.971429 10.971429-29.257143 10.971429-40.228571 0-10.971429-10.971429-10.971429-29.257143 0-40.228571l25.6-25.6h-76.8c-179.2 0-325.485714-142.628571-325.485715-321.828572 0-175.542857 146.285714-321.828571 325.485715-321.828571 14.628571 0 29.257143 10.971429 29.257142 29.257143s-10.971429 32.914286-25.6 32.914285zM522.971429 526.628571c-10.971429 3.657143-21.942857 3.657143-29.257143-7.314285l-73.142857-76.8c-10.971429-10.971429-10.971429-29.257143 0-40.228572 3.657143-3.657143 10.971429-7.314286 18.285714-7.314285s14.628571 3.657143 21.942857 7.314285l25.6 29.257143v-168.228571c0-14.628571 10.971429-29.257143 29.257143-29.257143 14.628571 0 29.257143 10.971429 29.257143 29.257143v237.714285c-3.657143 10.971429-10.971429 21.942857-21.942857 25.6z"  horiz-adv-x="1024" />

    
    <glyph glyph-name="QQyinle" unicode="&#58919;" d="M157.515279 896h708.969342A157.414887 157.414887 0 0 0 1023.9999 739.589035v-711.17797A157.414887 157.414887 0 0 0 866.484621-127.9999H157.515279A157.414887 157.414887 0 0 0 0 28.411065V739.589035A157.414887 157.414887 0 0 0 157.515279 896zM85.835286 373.458875A426.164664 426.164664 0 1 1 511.99995 799.623539 426.967801 426.967801 0 0 1 85.835286 373.458875zM641.907388 835.764712c-15.962351-18.271371-50.196074-34.233722-95.774108-45.578035-77.402345-18.271371-93.364697-22.789017-116.153714-36.442349a167.755278 167.755278 0 0 1-38.450193-27.10588c-18.271371-15.962351-31.924703-45.578035-27.306664-54.71372 2.208627-4.517647 45.578035-66.058033 97.982736-141.251751 52.404701-72.884699 102.500382-145.86979 113.945087-161.832141a241.643898 241.643898 0 0 0 18.170978-30.117644c0-2.208627-9.135685 0-18.170978 2.309019-36.542742 11.444705-100.392147 0-145.86979-22.789017a235.821153 235.821153 0 0 1-88.947442-88.345089 159.523122 159.523122 0 0 1-6.927058-120.470577A168.759199 168.759199 0 0 1 416.326234 22.588321c30.117644-15.962351 36.442349-15.962351 75.193718-18.170979a200.784294 200.784294 0 0 1 68.367052 4.517647c84.329403 25.098037 145.769397 91.156069 150.58822 168.658807 2.309019 43.269015-2.309019 56.922347-59.231366 157.214102C562.196023 489.712981 482.384266 630.964732 482.384266 633.273751c0 0 15.962351 2.208627 36.44235 4.517647a150.588221 150.588221 0 0 1 132.216457 79.711365C662.58817 738.083153 662.58817 744.909819 662.58817 788.178834a209.418019 209.418019 0 0 1-4.517646 54.71372c-2.309019 6.826666-4.618039 4.517647-15.962352-6.826666z"  horiz-adv-x="1024" />

    
    <glyph glyph-name="caidan" unicode="&#58921;" d="M483.883 412.242H184.58c-60.681 0-110.05 49.368-110.05 110.05V711.544c0 60.681 49.368 110.05 110.05 110.05h189.252c60.681 0 110.05-49.368 110.05-110.05v-299.302zM184.58 781.576c-38.615 0-70.031-31.417-70.031-70.031v-189.253c0-38.615 31.416-70.031 70.03-70.031h259.284V711.544c0 38.614-31.416 70.03-70.03 70.03H184.58zM840.875 412.242H539.62V711.544c0 60.681 49.367 110.05 110.05 110.05h191.206c60.681 0 110.05-49.368 110.05-110.05V522.29c0-60.681-49.369-110.049-110.05-110.049zM579.636 452.26h261.24c38.614 0 70.03 31.416 70.03 70.03V711.545c0 38.614-31.416 70.03-70.03 70.03H649.666c-38.615 0-70.03-31.416-70.03-70.03V452.26zM373.834-54.799H184.581c-60.681 0-110.05 49.368-110.05 110.05V246.458c0 60.681 49.368 110.05 110.05 110.05h299.302V55.25c0-60.681-49.368-110.05-110.049-110.05z m-189.253 371.29c-38.615 0-70.031-31.417-70.031-70.032v-191.208c0-38.615 31.416-70.031 70.03-70.031h189.253c38.615 0 70.031 31.416 70.031 70.03V316.49H184.581zM840.875-54.799H649.667c-60.68 0-110.049 49.368-110.049 110.05V356.508h301.257c60.681 0 110.05-49.368 110.05-110.05V55.25c0-60.68-49.369-110.049-110.05-110.049z m-261.239 371.29v-261.24c0-38.615 31.416-70.031 70.031-70.031h191.208c38.615 0 70.031 31.416 70.031 70.03V246.459c0 38.615-31.416 70.031-70.03 70.031h-261.24z"  horiz-adv-x="1024" />

    
    <glyph glyph-name="liebiaoxunhuan2" unicode="&#58996;" d="M642.2912 139.4304H285.696l34.2912-32c6.8608-4.5696 11.4304-11.4304 11.4304-20.5696C329.1392 73.1392 317.696 64 304 64c-6.8608 0-16 4.5696-20.5696 9.1392l-77.7216 68.5696c-9.1392 9.152-11.4176 25.152 0 34.2912l77.7216 70.8608c4.5696 4.5696 13.7088 6.848 20.5696 6.848 13.7088 0 25.1392-11.4176 25.1392-25.1392 0-6.8608-4.5696-13.7088-9.1392-18.2784l-29.7088-27.4304h354.2784c80 0 141.7216 64 141.7216 141.7088V386.304c0 13.7088 9.1392 22.848 22.848 22.848 13.7216 0 22.8608-9.1392 22.8608-22.848v-61.7216c0-100.5696-84.5696-185.1392-189.7088-185.1392zM381.696 628.5696H736l-34.2912 32c-6.848 4.5696-11.4176 11.4304-11.4176 20.5696C692.5696 694.8608 704 704 717.696 704c6.8608 0 16-4.5696 20.5824-9.1392l77.7088-68.5696c9.1392-9.152 11.4304-25.152 0-34.2912l-75.4304-70.8608c-4.5696-4.5696-13.7088-6.848-20.5696-6.848a25.3696 25.3696 0 0 0-25.1392 25.1392c0 6.8608 4.5696 13.7088 9.1392 18.2784l29.7088 27.4304H379.4304c-77.7216-2.2784-141.7216-66.2784-141.7216-146.2784v-64c0-13.7216-9.1392-22.8608-22.848-22.8608-13.7216 0-22.8608 9.1392-22.8608 22.8608v61.7088c0 107.4304 84.5696 192 189.7088 192z"  horiz-adv-x="1024" />

    
    <glyph glyph-name="jia1" unicode="&#58987;" d="M448.19 834h127.62v-900h-127.62V834zM62 449.99999971h900v-128.75999942H62V449.99999971z"  horiz-adv-x="1024" />

    
    <glyph glyph-name="zanting" unicode="&#58883;" d="M512 832C264.567467 832 64 631.432533 64 384S264.567467-64 512-64 960 136.567467 960 384 759.381333 832 512 832zM512-128C229.205333-128 0 101.239467 0 384 0 666.794667 229.205333 896 512 896s512-229.239467 512-512c0-282.760533-229.256533-512-512-512zM426.666667 605.866667a34.133333 34.133333 0 0 0 34.133333-34.133334v-375.466666a34.133333 34.133333 0 1 0-68.266667 0V571.733333a34.133333 34.133333 0 0 0 34.133334 34.133334z m170.666666 0a34.133333 34.133333 0 0 0 34.133334-34.133334v-375.466666a34.133333 34.133333 0 1 0-68.266667 0V571.733333a34.133333 34.133333 0 0 0 34.133333 34.133334z"  horiz-adv-x="1024" />

    
    <glyph glyph-name="liebiaoxunhuan3" unicode="&#59160;" d="M813.568 412.16c-13.824 0-23.04-9.216-23.04-23.04v-61.952c0-77.824-61.952-142.336-142.336-142.336h-266.24c-80.384 0-142.336 64.512-142.336 142.336v114.688c0 80.384 64.512 144.384 142.336 146.944h355.84l-29.696-27.648c-4.608-4.608-9.216-11.264-9.216-18.432 0-13.824 11.264-25.088 25.088-25.088 7.168 0 15.872 2.56 20.48 7.168l75.776 71.168c11.264 9.216 9.216 25.088 0 34.304L742.4 699.392c-4.608 4.608-13.824 9.216-20.48 9.216-13.824 0-25.088-9.216-27.648-23.04 0-9.216 4.608-15.872 11.264-20.48l34.304-32.256H384c-105.472 0-190.464-84.992-190.464-193.024v-112.64c0-100.864 84.992-185.856 190.464-185.856h261.632c105.472 0 190.464 84.992 190.464 185.856V389.12c0.512 13.824-8.704 23.04-22.528 23.04z"  horiz-adv-x="1024" />

    
    <glyph glyph-name="success" unicode="&#59024;" d="M512.1-117.4c277 0 501.5 224.5 501.5 501.5S789 885.6 512.1 885.6 10.6 661 10.6 384.1s224.5-501.5 501.5-501.5zM512.1-127.9C229.8-127.9 0.2 101.7 0.2 384 0.1 666.3 229.8 896 512.1 896 794.4 896 1024 666.3 1024 384.1c0-282.3-229.6-512-511.9-512z m0 1003c-270.8 0-491-220.3-491-491s220.3-491 491-491 491 220.3 491 491-220.3 491-491 491zM439.8 211c-10.5 0-21.1 4-29.2 11.9L268 362c-16.5 16.1-16.9 42.6-0.7 59.1 16.1 16.5 42.6 16.8 59.1 0.7L439.9 311l229.3 222.4c16.6 16.1 43 15.7 59.1-0.9 16.1-16.6 15.7-43-0.9-59.1L468.9 222.8c-8.1-7.9-18.6-11.8-29.1-11.8z"  horiz-adv-x="1024" />

    
    <glyph glyph-name="bofang" unicode="&#58884;" d="M511.999996 896C229.260123 896-0.000004 666.761299-0.000004 384c0-282.782725 229.238701-512 512-512 282.782725 0 512 229.217275 512 512C1024.021422 666.761299 794.804147 896 511.999996 896zM511.999996-62.842985999999996c-246.786743 0-446.82156 200.056244-446.82156 446.842986 0 246.786743 200.056244 446.82156 446.82156 446.82156 246.829595 0 446.842986-200.034818 446.842986-446.82156C958.864408 137.213257 758.829591-62.842985999999996 511.999996-62.842985999999996zM365.102105 567.4723799999999l85.70472 0 0-385.671242-85.70472 0 0 385.671242ZM536.511546 567.4723799999999l107.130901 0 0-385.671242-107.130901 0 0 385.671242Z"  horiz-adv-x="1030" />

    
    <glyph glyph-name="erji" unicode="&#58929;" d="M836.6 327.8h-15.1c-37.5 0-67.9-30.4-67.9-67.9v-266.8c0-37.5 30.4-67.9 67.9-67.9h15.1c37.5 0 67.9 30.4 67.9 67.9V259.9c0 37.5-30.4 67.9-67.9 67.9zM282.9 327.8h-15.1c-37.5 0-67.9-30.4-67.9-67.9v-266.8c0-37.5 30.4-67.9 67.9-67.9h15.1c37.5 0 67.9 30.4 67.9 67.9V259.9c0 37.5-30.4 67.9-67.9 67.9zM278.1 552.8c-78.4-89.5-127.2-211.1-128.4-345.5-15.3-19-25.3-48-25.3-80.9 0-48.6 21.4-89 50.3-100.7V227.2h0.6c5.6 119 50.9 226 120.6 306.3-8 4.1-14.4 10.9-17.8 19.3zM761.1 547.1c0.2-0.2 0.5-0.4 0.7-0.6l0.2 0.2c5.4-3.1 11.7-4.9 18.4-4.9 19.9 0 36 15.2 36 34 0 2.6-0.4 5.1-1 7.6 0 0-3 11.8-7.2 15.8-65.2 62.3-155.7 101.1-256 101.1-101.4 0-192.8-39.6-258.2-103.2-3.5-3.4-5.1-13.8-5.1-13.8-0.6-2.4-1-5-1-7.6 0-18.8 16.1-34 36-34 6.8 0 13 1.9 18.4 4.9l0.2-0.2c0.2 0.2 0.5 0.4 0.7 0.6 4.2 2.5 7.8 5.7 10.6 9.6 51.7 46.6 121.2 75.6 198.3 75.6s146.7-29 198.3-75.6c2.9-3.8 6.5-7 10.7-9.5zM954.7 207.3c-1.3 134.4-50.1 256-128.4 345.5-3.4-8.4-9.8-15.2-17.8-19.4 69.8-80.4 115.1-187.3 120.6-306.3h0.6V25.8c28.9 11.6 50.3 52.1 50.3 100.7 0 32.9-10 61.8-25.3 80.8zM786.2 353h-15.1c-37.5 0-67.9-30.4-67.9-67.9v-266.8c0-37.5 30.4-67.9 67.9-67.9h15.1c37.5 0 67.9 30.4 67.9 67.9V285c0.1 37.6-30.4 68-67.9 68zM232.6 353h-15.1c-37.5 0-67.9-30.4-67.9-67.9v-266.8c0-37.5 30.4-67.9 67.9-67.9h15.1c37.5 0 67.9 30.4 67.9 67.9V285c0 37.6-30.4 68-67.9 68zM227.8 578c-78.4-89.5-127.2-211.1-128.4-345.5-15.3-19-25.3-48-25.3-80.9 0-48.6 21.4-89 50.3-100.7V252.3h0.6c5.6 119 50.9 226 120.6 306.3-8.1 4.2-14.4 11-17.8 19.4zM710.7 572.3c0.2-0.2 0.5-0.4 0.7-0.6l0.2 0.2c5.4-3.1 11.7-4.9 18.4-4.9 19.9 0 36 15.2 36 34 0 2.6-0.4 5.1-1 7.6 0 0-3 11.8-7.2 15.8-65.3 62.4-155.8 101.1-256.1 101.1-101.4 0-192.8-39.6-258.2-103.2-3.5-3.4-5.1-13.8-5.1-13.8-0.6-2.4-1-5-1-7.6 0-18.8 16.1-34 36-34 6.8 0 13 1.9 18.4 4.9l0.2-0.2c0.2 0.2 0.5 0.4 0.7 0.6 4.2 2.5 7.8 5.7 10.6 9.6 51.7 46.6 121.2 75.6 198.3 75.6s146.7-29 198.3-75.6c3-3.8 6.7-7 10.8-9.5zM904.3 232.5c-1.3 134.4-50.1 256-128.4 345.5-3.4-8.4-9.8-15.2-17.8-19.4 69.8-80.4 115.1-187.3 120.6-306.3h0.6V51c28.9 11.6 50.3 52.1 50.3 100.7 0.1 32.9-9.9 61.8-25.3 80.8z"  horiz-adv-x="1024" />

    
    <glyph glyph-name="erji2" unicode="&#58925;" d="M1020.906344 14.308157h-30.936555V377.812689c0 264.507553-215.009063 479.516616-479.516617 479.516616S30.936556 642.320242 30.936556 377.812689V14.308157H0V377.812689C0 659.335347 228.930514 888.265861 510.453172 888.265861s510.453172-228.930514 510.453172-510.453172V14.308157zM105.18429-128c-38.670695 0-72.700906 34.030211-103.637462 105.18429l-1.546828 3.093656V323.673716h139.214502c26.296073 0 77.34139-15.468278 77.341389-77.34139v-266.05438l-1.546828-3.093656c-4.640483-10.827795-46.404834-105.18429-109.824773-105.18429zM30.936556-13.534743c24.749245-55.685801 49.498489-83.528701 74.247734-83.528701 35.577039 0 69.607251 60.326284 80.435045 83.528701V246.332326c0 43.311178-38.670695 46.404834-46.404833 46.404834H30.936556v-306.271903zM915.722054-128c-63.41994 0-105.18429 94.356495-109.824773 105.18429l-1.546828 3.093656V246.332326c0 60.326284 51.045317 77.34139 77.34139 77.34139h139.214501v-343.39577l-1.546827-3.093656c-30.936556-71.154079-63.41994-105.18429-103.637463-105.18429zM835.287009-13.534743c12.374622-26.296073 44.858006-83.528701 80.435045-83.528701 24.749245 0 49.498489 29.389728 74.247735 83.528701V292.73716h-108.277946c-7.734139 0-46.404834-3.093656-46.404834-46.404834v-259.867069z"  horiz-adv-x="1025" />

    
    <glyph glyph-name="bofangye-caozuolan-suijibofang1" unicode="&#58890;" d="M814.07241482 577.93801482h103.76533333c27.1853037 0 41.26340741 32.52527408 22.5735111 52.30743703l-87.38133333 92.96402963c-11.77220741 12.50038518-31.43300741 13.1072-43.93339259 1.3349926-12.50038518-11.77220741-13.1072-31.43300741-1.33499258-43.9333926l38.10797036-40.53522963h-31.91845926C703.75348148 640.0758518499999 632.02797037 578.90891852 485.30014815 401.59762963l-10.67994074-12.86447408c-123.79022222-149.39780741-187.62714075-203.04023703-265.54216296-203.04023703h-103.15851853c-17.11217778 0-31.06891852-13.95674075-31.06891851-31.06891852s13.95674075-31.06891852 31.06891851-31.06891852h103.15851853c104.61487408 0 176.70447408 60.68148148 313.48053333 225.61374815l10.67994074 12.86447407c133.62062222 161.29137778 197.5789037 215.90471111 280.8338963 215.90471112zM917.95911111 188.12017777999995H814.19377778c-64.5650963 0-127.06702222 40.77795555-205.34613333 126.58157037-10.8013037 11.77220741-29.12711111 12.62174815-41.02068148 1.82044444-11.77220741-10.8013037-12.62174815-29.12711111-1.82044445-41.02068148 88.35223703-96.72628148 162.99045925-145.51419259 248.18725926-145.51419259h37.86524444l-42.84112592-46.72474074c-10.8013037-11.77220741-10.07312592-30.09801482 1.69908148-41.02068148 11.77220741-10.8013037 30.09801482-10.07312592 41.02068147 1.69908148l87.5026963 95.26992592c16.86945185 18.93262222 3.76225185 48.90927408-21.48124444 48.90927408zM106.04088889 582.4284444499999h103.15851852c62.50192592 0 123.66885925-41.38477037 203.04023704-129.73700742 11.40811852-12.74311111 31.06891852-13.83537778 43.81202963-2.42725925s13.83537778 31.06891852 2.42725925 43.81202963c-90.17268148 100.48853333-163.96136297 150.36871111-249.27952592 150.36871111h-103.15851852c-17.11217778 0-31.06891852-13.95674075-31.06891852-31.06891852 0-17.11217778 13.83537778-30.94755555 31.06891852-30.94755555z"  horiz-adv-x="1024" />

    
    <glyph glyph-name="zanting1" unicode="&#58952;" d="M512 896C229.7 896 0 666.3 0 384s229.7-512 512-512 512 229.7 512 512S794.3 896 512 896z m0-991C247.9-95 33 119.9 33 384S247.9 863 512 863s479-214.9 479-479-214.9-479-479-479zM396.4 582.2c-22.8 0-41.3-18.5-41.3-41.3v-313.8c0-22.8 18.5-41.3 41.3-41.3 22.8 0 41.3 18.5 41.3 41.3V540.9c0 22.8-18.5 41.3-41.3 41.3zM627.6 582.2c-22.8 0-41.3-18.5-41.3-41.3v-313.8c0-22.8 18.5-41.3 41.3-41.3s41.3 18.5 41.3 41.3V540.9c0 22.8-18.5 41.3-41.3 41.3z"  horiz-adv-x="1024" />

    
    <glyph glyph-name="weibiaoti--" unicode="&#58895;" d="M121.3 219.6m-40.9 0a40.9 40.9 0 1 1 81.8 0 40.9 40.9 0 1 1-81.8 0ZM266.5 44.4m-40.9 0a40.9 40.9 0 1 1 81.8 0 40.9 40.9 0 1 1-81.8 0ZM512 864.4C252.8 864.4 42.6 654.3 42.6 395c0-69 14.9-134.6 41.7-193.6l74.2 35.4c-21.7 48.3-33.7 101.8-33.7 158.2 0 213.8 173.3 387.2 387.2 387.2S899.2 608.9 899.2 395 725.8 7.9 512 7.9c-81.9 0-157.9 25.4-220.4 68.8l-51.2-57.2c1.5-0.7 2.5-2.1 2.5-3.6s0.3-3.2-1.2-3.9c76.7-54.5 169.2-86.2 270.4-86.2 259.2 0 469.4 210.1 469.4 469.4S771.2 864.4 512 864.4zM379.9 547.2c11.3 19.6 36.4 26.3 55.9 15l226.6-130.9c19.6-11.3 26.3-36.4 15-55.9-11.3-19.6-36.4-26.3-55.9-15L394.9 491.3c-19.6 11.3-26.3 36.3-15 55.9zM416.2 567.7c22.6 0 41-18.3 41-41V265c0-22.6-18.3-41-41-41-22.6 0-41 18.3-41 41V526.8c0 22.6 18.4 40.9 41 40.9zM677.5 417.4c11.5-19.5 5.1-44.6-14.4-56.1L437.8 228.1c-19.5-11.5-44.6-5.1-56.1 14.4s-5.1 44.6 14.4 56.1l225.3 133.2c19.5 11.5 44.6 5 56.1-14.4z"  horiz-adv-x="1024" />

    
    <glyph glyph-name="liebiaoxunhuan" unicode="&#58941;" d="M335.872 7.68C156.16 7.68 10.24 153.6 10.24 333.312c0 179.2 145.92 325.632 325.632 325.632H834.56V750.08l162.304-121.856L834.048 506.88V596.992H333.824c-145.408 0-264.192-118.784-263.68-264.192 0-145.408 118.272-263.68 263.68-263.68h357.888c142.848 0 260.096 116.224 260.608 259.584 0 15.36 11.264 29.184 25.6 31.232 1.536 0.512 3.584 0.512 5.12 0.512 16.384 0 30.208-13.312 30.72-29.184v-2.048c0-177.152-144.384-321.024-322.048-321.024H335.872z"  horiz-adv-x="1024" />

    
    <glyph glyph-name="wusousuojieguo" unicode="&#59080;" d="M256 469.333333l85.333333-51.2-85.333333-51.2v-51.2l136.533333 102.4L256 520.533333V469.333333z m264.533333-290.133333a37.575111 37.575111 0 0 1-42.666666-25.6 37.603556 37.603556 0 0 1 42.666666-25.6 37.632 37.632 0 0 1 42.666667 25.6 37.603556 37.603556 0 0 1-42.666667 25.6zM512 896a512 512 0 1 1 512-512A512 512 0 0 1 512 896z m0-972.8A460.8 460.8 0 1 0 972.8 384 460.8 460.8 0 0 0 512-76.8z m238.933333 392.533333v51.2l-85.333333 51.2 85.333333 51.2v51.2l-136.533333-102.4z m0 0"  horiz-adv-x="1024" />

    
    <glyph glyph-name="icmusicnotepx" unicode="&#60784;" d="M512 768v-450.133333A170.666667 170.666667 0 1 1 597.333333 170.666667V597.333333h170.666667V768z"  horiz-adv-x="1024" />

    
    <glyph glyph-name="back" unicode="&#59169;" d="M646.891682 746.44299m21.722321-21.722321l0 0q21.72232-21.72232 0-43.44464l-318.594032-318.594032q-21.72232-21.72232-43.44464 0l0 0q-21.72232 21.72232 0 43.444641l318.594031 318.594031q21.72232 21.72232 43.444641 0ZM690.336323 65.812318m-21.72232-21.722321l0 0q-21.72232-21.72232-43.444641 0l-318.594031 318.594032q-21.72232 21.72232 0 43.44464l0 0q21.72232 21.72232 43.44464 0l318.594032-318.594031q21.72232-21.72232 0-43.444641Z"  horiz-adv-x="1024" />

    
    <glyph glyph-name="bofang1" unicode="&#58899;" d="M511.3 797.7c-228 0-413.5-185.5-413.5-413.5 0-23.8 2.6-48.1 6.5-70.8 0-0.1 0.2-0.1 0.3-0.2 1.6-5.8 6.7-10.1 13-10.1 7.6 0 13.8 6.2 13.8 13.8 0 0.5-0.2 0.9-0.3 1.3l0.2 0.1c-3.7 21.4-6 43.3-6 65.8 0 213.1 172.8 385.9 385.9 385.9s385.9-172.8 385.9-385.9-172.6-385.9-385.8-385.9c-142.4 0-266.5 77.4-333.4 192.2 0 0.1-0.1 0.1-0.1 0.2l-0.6 0.9c-2.3 4.3-6.7 7.4-12 7.4-7.6 0-13.8-6.2-13.8-13.8 0-3 1.2-5.6 2.8-7.8l-0.2-0.1C225.7 54 358.8-29.2 511.3-29.2c228 0 413.5 185.5 413.5 413.5S739.3 797.7 511.3 797.7zM446.9 236.4c-7 0-14.1 1.8-20.5 5.5-12.8 7.3-20.6 20.5-20.9 35.2L402 489.9c-0.2 14.9 7.3 28.5 20.1 36.2 12.8 7.7 28.3 7.9 41.3 0.7l191.3-106.4c13.2-7.4 21.2-20.8 21.3-36 0.1-15.1-7.8-28.6-21-36.1L467.3 241.8c-6.4-3.6-13.4-5.4-20.4-5.4z m-17.4 254l3.6-212.8c0.1-7.1 4.9-10.6 7-11.7 2-1.2 7.5-3.6 13.6 0l187.7 106.4c6.3 3.6 7 9.6 7 12.1 0 2.4-0.7 8.5-7.1 12L450 502.7c-6.2 3.4-11.7 1-13.8-0.2-2-1.3-6.8-4.9-6.7-12.1z"  horiz-adv-x="1024" />

    
    <glyph glyph-name="xiajiang" unicode="&#58943;" d="M789.074747 125.284848L572.767677 335.644444 396.282828 163.943434 69.688889 481.616162 131.490909 541.737374l264.791919-257.551515 176.484849 171.70101 277.979798-270.480808-61.672728-60.121213z m163.426263 164.589899L689.519192 23.272727l264.791919 1.810101-1.810101 264.791919z"  horiz-adv-x="1024" />

    
    <glyph glyph-name="jia2" unicode="&#58942;" d="M0 298.805098V469.313557h1024v-170.627114H0zM426.686443-128V896h170.74577v-1024z"  horiz-adv-x="1024" />

    
    <glyph glyph-name="bofang3" unicode="&#58962;" d="M512 896c281.6 0 512-230.4 512-512s-230.4-512-512-512-512 230.4-512 512 230.4 512 512 512z m0-979.2c256 0 467.2 211.2 467.2 467.2S768 851.2 512 851.2 44.8 640 44.8 384 256-83.2 512-83.2z m192 512c44.8-25.6 44.8-70.4 0-96L448 192c-44.8-25.6-83.2-6.4-83.2 44.8V544c0 51.2 38.4 70.4 76.8 44.8L704 428.8z"  horiz-adv-x="1024" />

    
    <glyph glyph-name="shangyishou1" unicode="&#58905;" d="M512.610402-123.513826c280.978393 0 508.74998 227.771587 508.74998 508.75100301 0 280.96509001-227.771587 508.748956-508.74998 508.74895599-280.97123 0-508.74998-227.783867-508.74998-508.748956C3.860423 104.25776098999995 231.639173-123.513826 512.610402-123.513826zM512.894881 838.368418c250.877841 0 454.251761-203.381084 454.251761-454.257901 0-250.865561-203.37392-454.245621-454.251761-454.245621s-454.251761 203.381084-454.25176101 454.245621C58.64311999 634.987335 262.01704 838.368418 512.894881 838.368418zM357.455693 146.255271c9.136078-0.049119 17.178241 4.473895 21.99801301 11.414981L627.988176 361.771743c2.105964 1.176802 4.088108 2.66059599 5.874801 4.465708 10.273994 10.386558 10.273994 27.212782 0 37.586037l-0.464581 0.376577c-0.040932 0.040932-0.077771 0.084934-0.118704 0.125867-1.450025 1.465374-3.027963 2.717901-4.693906 3.776L378.607432 610.799446c-4.930289 6.630001-12.806677 10.952446-21.662369 10.991332-0.538259 0.00307-1.072425-0.014326-1.602498-0.040932-6.484691-0.182149-12.913101-2.764973-17.859763-7.76382401-0.42876499-0.432859-0.831948-0.881067-1.224898-1.33643799-3.829212-4.325515-6.227842-9.901511-6.443759-16.10377-0.032746-0.656963-0.035816-1.313925-0.021489-1.971911l0.226151-421.305395C330.096579 158.43159099000002 342.615707 146.334066 357.455693 146.255271zM572.72759499 385.6465L384.158868 230.79468899999995l-0.169869 307.884183L572.72759499 385.6465zM669.488359 173.91830700000003c14.84408-0.079818 26.814716 11.897981 26.735921 26.735921l-0.23229099 367.189893c-0.072655 14.851243-12.169157 26.947745-27.013237 27.013237-14.838963 0.079818-27.232225-11.461029-27.16059301-26.298969l0.232291-367.625822C642.129244 186.09462799999994 654.649396 173.99710200000004 669.488359 173.91830700000003z"  horiz-adv-x="1024" />

    
    <glyph glyph-name="jia3" unicode="&#58891;" d="M768 405.333333H533.333333V640c0 12.8-8.533333 21.333333-21.333333 21.333333s-21.333333-8.533333-21.333333-21.333333v-234.666667H256c-12.8 0-21.333333-8.533333-21.333333-21.333333s8.533333-21.333333 21.333333-21.333333h234.666667v-234.666667c0-12.8 8.533333-21.333333 21.333333-21.333333s21.333333 8.533333 21.333333 21.333333V362.66666699999996h234.666667c12.8 0 21.333333 8.533333 21.333333 21.333333s-8.533333 21.333333-21.333333 21.333333zM512 896C228.266667 896 0 667.733333 0 384s228.266667-512 512-512 512 228.266667 512 512S795.733333 896 512 896z m0-981.333333C253.866667-85.33333300000004 42.666667 125.866667 42.666667 384S253.866667 853.333333 512 853.333333s469.333333-211.2 469.333333-469.333333-211.2-469.333333-469.333333-469.333333z"  horiz-adv-x="1024" />

    
    <glyph glyph-name="back1" unicode="&#58957;" d="M399.723 372.809L764.94 42.1c6.55-5.93 7.052-16.05 1.12-22.6l-42.958-47.44c-5.93-6.55-16.05-7.052-22.6-1.12L256.53 372.963c-6.55 5.932-7.052 16.05-1.12 22.6a16 16 0 0 0 1.146 1.144l444.07 400.37c6.563 5.918 16.68 5.394 22.597-1.169l42.856-47.533c5.917-6.563 5.393-16.68-1.17-22.597l-365.16-329.226c-6.562-5.917-7.086-16.034-1.169-22.597a16 16 0 0 1 1.144-1.146z"  horiz-adv-x="1024" />

    
    <glyph glyph-name="QQyinle1" unicode="&#60020;" d="M35.84 366.08c0-263.68 215.04-478.72 478.72-478.72 263.68 0 478.72 215.04 478.72 478.72C993.28 629.76 780.8 844.8 514.56 844.8 250.88 844.8 35.84 629.76 35.84 366.08zM660.48 885.76c-17.92-20.48-56.32-38.4-107.52-51.2-87.04-20.48-104.96-25.6-130.56-40.96-15.36-7.68-33.28-20.48-43.52-30.72-20.48-17.92-35.84-51.2-30.72-61.44 2.56-5.12 51.2-74.24 110.08-158.72 58.88-81.92 115.2-163.84 128-181.76 12.8-17.92 20.48-33.28 20.48-33.28 0-2.56-10.24 0-20.48 2.56-40.96 12.8-112.64 0-163.84-25.6-38.4-20.48-81.92-64-99.84-99.84-20.48-40.96-23.04-97.28-7.68-135.68 15.36-40.96 48.64-74.24 92.16-97.28 33.28-17.92 40.96-17.92 84.48-20.48 35.84-2.56 56.32 0 76.8 5.12 94.72 28.16 163.84 102.4 168.96 189.44 2.56 48.64-2.56 64-66.56 176.64-99.84 174.08-189.44 332.8-189.44 335.36 0 0 17.92 2.56 40.96 5.12 66.56 2.56 120.32 35.84 148.48 89.6 12.8 23.04 12.8 30.72 12.8 79.36 0 30.72-2.56 58.88-5.12 61.44-2.56 7.68-5.12 5.12-17.92-7.68z"  horiz-adv-x="1024" />

    
    <glyph glyph-name="shangsheng" unicode="&#58916;" d="M703.28 530.488c-4.33-10.697-13.92-17.04000001-25.236-17.041l-133.81 0L544.234 60.88900000000001c0-17.83700001-14.399-32.297-32.232-32.297-17.83700001 0-32.236 14.459-32.236 32.297l0 452.558-134.207 0c-11.314 0-20.906 6.343-25.234 17.04-4.33099999 10.701-2.082 22.149 5.92 30.335L492.487 730.9259999999999c5.333 5.46 11.773 8.172 19.316 8.172s13.982-2.74300001 19.316-8.202L697.361 560.827c7.99800001-8.186 10.25-19.641 5.92-30.341z"  horiz-adv-x="1024" />

    
    <glyph glyph-name="49shurushanchu-2" unicode="&#58880;" d="M925.32 556.9100000000001a448.88 448.88 0 1 1 35.18-174.2 446 446 0 0 1-35.18 174.2zM552.6 381.76l140 140a28 28 0 0 1 0 39.6 28 28 0 0 1-39.6 0l-140-140-140 140a28 28 0 0 1-39.6 0 28 28 0 0 1 0-39.6l140-140-140-140a28 28 0 0 1 0-39.6 28 28 0 0 1 39.6 0l140 140 140-140a28 28 0 1 1 39.6 39.6z"  horiz-adv-x="1024" />

    
    <glyph glyph-name="jia4" unicode="&#58892;" d="M956.29828364 334.63352483000006H67.70171636c-29.61988556 0-49.36647517 19.7465896-49.36647519 49.36647517s19.7465896 49.36647517 49.36647519 49.36647517h888.59656728c29.61988556 0 49.36647517-19.7465896 49.36647519-49.36647517s-19.7465896-49.36647517-49.36647519-49.36647517zM512-109.66475882999998c-29.61988556 0-49.36647517 19.7465896-49.36647517 49.36647519V828.29828364c0 29.61988556 19.7465896 49.36647517 49.36647517 49.36647519s49.36647517-19.7465896 49.36647517-49.36647519v-888.59656728c0-29.61988556-19.7465896-49.36647517-49.36647517-49.36647519z"  horiz-adv-x="1024" />

    
    <glyph glyph-name="shangsheng1" unicode="&#58967;" d="M682.667 640l97.92-97.92-208.214-208-170.666 170.667L85.333 188.373 145.707 128l256 256 170.666-170.667L840.747 481.92l97.92-97.92V640h-256z"  horiz-adv-x="1024" />

    
    <glyph glyph-name="delete" unicode="&#58881;" d="M512-128C229.229714-128 0 101.22971399999994 0 384 0 666.7702859999999 229.229714 896 512 896 794.770286 896 1024 666.7702859999999 1024 384 1024 101.22971399999994 794.770286-128 512-128ZM768.146286 590.848L716.434286 642.633143 509.586286 435.712 302.665143 642.633143 250.953143 590.848 457.874286 384 250.953143 177.07885699999997 302.665143 125.36685699999998 509.586286 332.288 716.434286 125.36685699999998 768.146286 177.07885699999997 561.298286 384 768.146286 590.848Z"  horiz-adv-x="1024" />

    
    <glyph glyph-name="shangsheng2" unicode="&#59026;" d="M954.9 606.7V384c0-19.7-15.9-35.6-35.6-35.6s-35.6 15.9-35.6 35.6V521.4L591 228.7c-13.9-13.9-36.4-13.9-50.3 0L379.8 389.6 126 135.7c-6.7-6.7-15.7-10.4-25.2-10.4-19.7 0-35.6 15.9-35.6 35.6 0 9.4 3.7 18.5 10.4 25.2l279 279c13.9 13.9 36.4 13.9 50.3 0l160.9-160.9 267.5 267.5H696.1c-19.7 0-35.6 15.9-35.6 35.6s15.9 35.6 35.6 35.6h222.7c9.3 0.2 18.7-3.3 25.8-10.4 7-7.1 10.5-16.4 10.3-25.8z"  horiz-adv-x="1024" />

    
    <glyph glyph-name="search" unicode="&#58963;" d="M400.696889 94.606222A400.668444 400.668444 0 1 0 400.696889 896a400.668444 400.668444 0 0 0 0-801.393778z m0 89.031111a311.637333 311.637333 0 1 1 0 623.331556 311.637333 311.637333 0 0 1 0-623.331556zM667.904 294.001778l314.766222-314.823111-62.919111-62.976-314.823111 314.823111z"  horiz-adv-x="1024" />

    
    <glyph glyph-name="shangsheng3" unicode="&#59273;" d="M312.064 513.408L478.72 685.44c6.784 9.856 17.92 15.744 29.824 15.744s23.168-5.888 29.824-15.744l173.056-171.904m-166.016-0.128v-412.8c-10.368 0-2.432-0.128-15.36 0s-21.12 0-35.968 0h-15.36V513.408m59.776 172.032"  horiz-adv-x="1024" />

    
    <glyph glyph-name="message_SendSuccessfully" unicode="&#58907;" d="M511.2 857.4c-261.3 0-473.1-211.8-473.1-473.1s211.8-473 473.1-473 473 211.8 473 473c0 261.3-211.8 473.1-473 473.1M823.1 530.7L466.9 174.5c-8.3-8.4-19.7-13.1-31.5-13-11.8 0-23.2 4.7-31.5 13L199.3 379.3c-8.4 8.3-13.1 19.7-13.1 31.5s4.7 23.1 13.1 31.5c17.3 17.4 45.6 17.4 63 0l173.3-173.2 324.6 324.5c17.4 17.4 45.6 17.4 63 0 8.4-8.3 13.1-19.7 13.1-31.5-0.2-11.8-4.8-23.1-13.2-31.4"  horiz-adv-x="1024" />

    
    <glyph glyph-name="bofang2" unicode="&#58912;" d="M512 896C230.4 896 0 668.16 0 384s230.4-512 512-512c284.16 0 512 227.84 512 512S796.16 896 512 896z m0-941.056c-236.032 0-429.056 193.024-429.056 429.056S275.968 813.056 512 813.056s429.056-193.024 429.056-429.056c0-236.032-193.024-429.056-429.056-429.056zM735.232 402.432l-4.608 2.56h-2.56L409.6 588.8c-4.608 2.56-9.216 4.608-13.824 4.608-13.824 0-23.04-9.216-23.04-23.04v-372.224c0-13.824 9.216-23.04 23.04-23.04 4.608 0 9.216 2.56 13.824 4.608l318.976 183.808h2.56l4.608 2.56c4.608 4.608 9.216 11.776 9.216 18.432s-5.12 13.312-9.728 17.92z m-297.472-143.872v250.88l218.624-125.44-218.624-125.44z"  horiz-adv-x="1024" />

    
    <glyph glyph-name="search1" unicode="&#58885;" d="M1012.395613-59.840719000000036l-215.113391 215.507227a450.391202 450.391202 0 0 1 104.012169 288.721398C901.294391 693.8438229999999 699.650201 896 450.745654 896 201.762341 896 0 693.8438229999999 0 444.387906c0-249.416534 201.762341-451.730245 450.627504-451.730246 110.74677 0 212.120235 40.053153 290.572428 106.493338l214.916473-215.42846a39.541165 39.541165 0 0 1 56.200441 0 39.895618 39.895618 0 0 1 0 56.397359h0.078767z m-561.728726 132.210848a369.969828 369.969828 0 0 0-262.413132 108.935123 370.836268 370.836268 0 0 0-108.659437 263.082654 370.32428 370.32428 0 0 0 108.698821 263.04327 369.969828 369.969828 0 0 0 524.905031 0 370.875651 370.875651 0 0 0 108.620054-263.04327 370.32428 370.32428 0 0 0-108.698821-263.082654 369.969828 369.969828 0 0 0-262.452516-108.935123z"  horiz-adv-x="1024" />

    
    <glyph glyph-name="gerenzhongxin-zhong" unicode="&#58894;" d="M952.832-15.872s-25.6-45.056-84.992-45.056h-716.8c-33.28 0-61.44 17.92-77.312 45.056 0 0-12.288 12.8-12.288 45.056V51.2h1.536c11.776 135.68 131.072 248.832 294.4 293.376C287.232 393.216 240.64 474.112 240.64 566.272c0 148.48 120.32 268.8 268.8 268.8S778.24 714.752 778.24 566.272c0-92.16-46.592-173.056-117.248-221.696 163.328-44.032 282.624-157.696 294.4-293.376h1.536v-22.528c0-14.848-1.536-29.696-4.096-44.544z"  horiz-adv-x="1024" />

    
    <glyph glyph-name="success1" unicode="&#58893;" d="M512-128C229.2352-128 0 101.23519999999996 0 384S229.2352 896 512 896s512-229.2352 512-512-229.2352-512-512-512z m271.5264 653.7088l-54.2976 54.3104-307.7376-307.7376-126.72 126.72-54.2976-54.3104L385.28 199.87199999999996l36.1984-36.1984z"  horiz-adv-x="1024" />

    
    <glyph glyph-name="shoucang1" unicode="&#58906;" d="M707.584 802.816c-77.312 0-148.992-38.912-196.608-102.912-47.104 64-119.296 102.912-196.608 102.912-139.264 0-252.416-123.904-252.416-275.968 0-90.624 40.448-154.624 73.216-205.824C229.888 172.032 468.48-12.8 478.72-20.48c9.728-7.68 20.992-11.264 32.256-11.264s22.528 3.584 32.256 11.264c10.24 7.68 248.32 193.024 343.552 341.504 32.768 51.2 73.216 115.2 73.216 205.824 0 152.064-113.152 275.968-252.416 275.968z"  horiz-adv-x="1024" />

    
    <glyph glyph-name="shanchu-" unicode="&#58887;" d="M873.984 94.20799999999997L584.192 384l289.792 289.792-72.192 72.192L512 456.192 222.208 745.984 150.016 673.792 439.808 384l-289.792-289.792 72.192-72.192L512 311.808l289.792-289.792 72.192 72.192z"  horiz-adv-x="1024" />

    
    <glyph glyph-name="delete1" unicode="&#58888;" d="M713.4 119.70000000000005c-11.2 0-20.2 9.4-20.2 21V538.9c0 11.5 9 20.9 20.2 20.9 11.1 0 20.2-9.4 20.2-20.9v-398.2c0-11.6-9.1-21-20.2-21m-202.6 0c-11.1 0-20.2 9.4-20.2 21V538.9c0 11.5 9.1 20.9 20.2 20.9 11.2 0 20.2-9.4 20.2-20.9v-398.2c0-11.6-9.1-21-20.2-21m-202.6 0c-11.2 0-20.2 9.4-20.2 21V538.9c0 11.5 9 20.9 20.2 20.9s20.2-9.4 20.2-20.9v-398.2c0-11.6-9-21-20.2-21M645.9 853.4c12.8 0 27.1-17.2 27.1-41.9v-62.8H348.6V811.4c0 24.7 14.3 41.9 27.1 41.9h270.2m0 41.9H375.7c-37.3 0-67.5-37.5-67.5-83.9v-104.8h405.2V811.3c0 46.4-30.3 83.9-67.5 83.9M982.1 706.6H39.4c-11.1 0-20.2 9.4-20.2 20.9 0 11.5 9.1 20.9 20.2 20.9h942.7c11.2 0 20.2-9.4 20.2-20.9 0.1-11.5-9-20.9-20.2-20.9M826.4-117.70000000000005H195.1c-54.6 0-99.2 51-99.2 113.6V736.5h40.5v-740.7c0-39.5 26.3-71.6 58.6-71.6h631.3c32.4 0 58.7 32.1 58.7 71.6V736.5h40.5v-740.7c0.1-62.6-44.4-113.5-99.1-113.5"  horiz-adv-x="1024" />

    
    <glyph glyph-name="chaxun" unicode="&#58974;" d="M950.6-9.4L798.9 142.3c56.9 70.6 91 160.5 91 258.3C890 628 705.6 812.4 478.2 812.4S66.4 628 66.4 400.6s184.4-411.8 411.8-411.8c106.6 0 203.7 40.5 276.9 107l150.4-150.4c6.2-6.2 14.4-9.4 22.6-9.4s16.4 3.1 22.6 9.4c12.4 12.5 12.4 32.7-0.1 45.2z m-337.1 89.5c-42.8-18.1-88.4-27.3-135.4-27.3s-92.5 9.2-135.4 27.3c-41.4 17.5-78.6 42.6-110.6 74.6-32 32-57 69.2-74.6 110.6-18.1 42.8-27.3 88.4-27.3 135.4s9.2 92.5 27.3 135.4c17.5 41.4 42.6 78.6 74.6 110.6 32 32 69.2 57 110.6 74.6 42.8 18.1 88.4 27.3 135.4 27.3s92.5-9.2 135.4-27.3c41.4-17.5 78.6-42.6 110.6-74.6 32-32 57-69.2 74.6-110.6 18.1-42.8 27.3-88.4 27.3-135.4s-9.2-92.5-27.3-135.4c-17.5-41.4-42.6-78.6-74.6-110.6-32-32-69.2-57.1-110.6-74.6z"  horiz-adv-x="1024" />

    
    <glyph glyph-name="xiajiang1" unicode="&#58886;" d="M697.36 206.93L531.118 36.785c-5.335-5.46-11.773-8.192-19.317-8.192-7.542 0-13.982 2.733-19.315 8.192L326.244 206.93c-8.002 8.187-10.251 19.718-5.92 30.418 4.33 10.698 13.92 17.204 25.234 17.204h134.207v452.23c0 17.838 14.398 32.296 32.236 32.296 17.833 0 32.232-14.458 32.232-32.297v-452.23h133.81c11.316 0 20.909-6.505 25.237-17.203 4.33-10.7 2.079-22.231-5.92-30.418z"  horiz-adv-x="1024" />

    
    <glyph glyph-name="gerenzhongxin-zhong1" unicode="&#58900;" d="M1013.56885333-70.96547554999995s-29.12711111-51.26371555-96.70200888-51.26371556h-815.55911112c-37.86524445 0-69.90506667 20.38897778-87.96387555 51.26371556 0 0-13.98101333 14.56355555-13.98101333 51.26371555V5.347555550000038h1.74762666c13.39847111 154.37368889 149.13080889 283.11552 334.96177778 333.79669334C256.26396445 394.48576 203.25262222 486.52743111 203.25262222 591.38503111c0 168.93724445 136.89742222 305.83466667 305.83466667 305.83466667S814.92195555 760.32227555 814.92195555 591.38503111c0-104.8576-53.01134222-196.89927111-133.40216888-252.24078222 185.83096889-50.09863111 321.56330667-179.42300445 334.96177778-333.79669334h1.74762666v-25.63185777c0-16.89372445-1.74762667-33.78744889-4.66033778-50.68117333z"  horiz-adv-x="1024" />

    
    <glyph glyph-name="ren" unicode="&#58901;" d="M802.4942375 499.428795c0-4.50087938 0.09376875-9.00175782 0-13.50263719-0.18753657-6.75131906-0.93768282-13.40886938-1.59406125-20.1601875-0.93768282-9.09552656-2.53174405-18.09728438-4.31334281-27.00527531-1.96913438-9.751905-4.59464719-19.22250469-7.68900188-28.59933562-7.1263922-22.03555404-16.78452844-42.94588781-28.88064094-62.73100219-5.90740406-9.56436844-12.28364906-18.84743157-19.22250375-27.66165281-9.56436844-12.18988125-19.87888219-23.62961531-31.31861718-34.13166562-12.56495438-11.62727062-26.06759156-22.12932188-40.41414375-31.41238595-15.94061344-10.22074594-32.63137313-18.94119938-50.25981657-25.9738228-11.72103939-4.68841594-23.62961531-8.62668469-35.81949563-11.72103936-12.47118563-3.1881225-25.12990783-5.34479344-37.97616749-7.03262346-17.0658328-2.25043969-34.13166656-2.06290313-51.19749937-1.5002925-8.34538031 0.28130531-16.69075969 1.50029344-25.03614 2.62551281-10.97089312 1.50029344-21.8480175 3.75073219-32.53760438 6.65755031-13.31510062 3.56319563-26.34889594 8.064075-39.00761907 13.50263719-17.44090687 7.50146531-33.94413001 16.50322313-49.60343812 27.09904219-19.50380906 13.22133187-36.94471594 28.59933562-52.79156062 45.9464747-14.25278343 15.65930813-26.63020124 32.81890969-37.1322525 51.19749936-10.97089312 19.03496812-19.5975778 39.10138688-25.97382281 60.10548938-3.84450094 12.75249094-6.84508687 25.78628625-8.81422219 38.91385031-0.843915 5.62609876-1.40652469 11.25219751-2.06290219 16.972065-0.843915 8.15784375-1.21898813 16.40945531-1.50029344 24.66106593-0.18753657 6.09494062 0.18753657 12.28364906 0.46884188 18.37858969 0.28130531 5.53233095 0.75014625 11.06466094 1.21898812 16.59699187 0.56260969 5.53233095 1.21898813 10.97089312 2.15667093 16.50322313 3.56319563 20.91033374 9.37683187 41.16428998 17.25336939 60.85563563 5.06348906 12.65872219 11.15842969 24.84860347 18.00351656 36.66341062 8.064075 13.7839425 17.0658328 26.8177378 27.19281094 39.10138782 8.43914811 10.3145147 17.53467467 20.1601875 27.38034843 29.16194531 19.03496812 17.34713815 39.75776531 32.2563 62.63723343 44.25864468 16.59699188 8.72045344 33.94413001 15.75307687 51.85387782 21.28540688 12.00234375 3.65696437 24.28599375 6.47001375 36.7571794 8.53291688 8.81422125 1.40652469 17.81598 2.3442075 26.72396903 3.09435375 11.06466094 0.93768282 22.12932188 0.56260969 33.28775157 0.46884186 4.31334282 0 8.62668469-0.65637846 12.94002749-1.12521936 3.56319563-0.37507313 7.1263922-0.843915 10.68958782-1.12522029 9.56436844-0.93768282 18.94119938-2.90681814 28.31803127-4.96972035 9.84567281-2.15667094 19.41004125-4.96972032 28.88063999-8.25161154 12.37741779-4.21957406 24.37976156-9.28306311 36.0070331-15.09669845 13.69017375-6.84508687 26.72396906-14.81539406 39.1951547-23.72338406 7.40769654-5.34479344 14.62785655-10.97089312 21.47294438-16.972065 9.09552656-7.87653844 17.62844345-16.31568656 25.69251844-25.12990781 9.65813625-10.50205123 18.28482094-21.8480175 26.2551272-33.66282469a293.11975031 293.11975031 0 0 0 24.4735303-44.44618126c6.28247721-14.25278343 11.43973406-28.97440875 15.284235-44.07110719 2.71928155-10.40828249 4.68841594-21.00410249 6.28247719-31.6936903 2.06290313-13.59640595 3.1881225-27.19281094 2.71928156-40.88298469z m-58.60519688-0.09376875c0 4.03203751 0.18753657 8.064075 0 12.0961125-0.37507313 7.22016-1.31275594 14.25278343-2.25043968 21.47294438-1.21898813 9.28306311-3.28189125 18.28482094-5.71986657 27.19281093-1.78159781 6.84508687-4.03203751 13.50263719-6.47001375 20.06641875-4.59464719 12.28364906-10.22074594 24.00468844-16.69075968 35.25688689-4.96972032 8.62668469-10.50205123 16.78452844-16.50322407 24.66106593-8.43914811 11.15842969-17.90974781 21.37917562-28.2242625 30.84977532-10.22074594 9.28306311-21.09787031 17.72221125-32.81890968 25.03613999-15.65930813 9.93944156-32.2563 17.90974781-49.79097471 23.81715187-10.78335657 3.65696437-21.75424875 6.47001375-33.00644623 8.43914812-9.4705997 1.68783001-18.94119938 3.00058594-28.50556781 3.37565907-3.75073219 0.09376875-7.50146531-0.09376875-11.25219748 0.65637845-1.40652469 0.28130531-3.00058594-0.09376875-4.5008794-0.18753657-1.03145157-0.09376875-2.06290313-0.37507313-3.09435469-0.37507313-5.81363531 0-11.62727062-0.28130531-17.53467468-0.93768282-9.09552656-1.03145157-18.09728438-2.3442075-27.00527438-4.40711062-14.25278343-3.1881225-28.03672594-7.68900187-41.35182657-13.50263812-13.40886938-5.81363531-26.16135937-12.75249094-38.16370312-20.91033374-13.7839425-9.37683187-26.5364325-19.97265094-37.97616752-32.16253126-4.50087938-4.78218374-8.90799001-9.65813625-13.12756404-14.81539405-9.4705997-11.72103939-17.72221125-24.192225-24.75483469-37.41355689-6.09494062-11.53350281-11.43973406-23.44207873-15.37800375-35.91326436-3.75073219-11.72103939-6.84508687-23.53584655-8.62668469-35.81949659-1.40652469-9.37683187-2.62551281-18.65989406-2.71928156-28.13049374 0-0.75014625 0-1.50029344-0.18753656-2.25043968-0.75014625-3.56319563-0.65637846-7.22016-0.28130531-10.78335658 0.65637846-6.376245 0.46884189-12.84625875 1.31275687-19.31627248 0.843915-6.09494062 1.40652469-12.18988125 2.62551281-18.19105313 1.68783001-8.72045344 3.84450094-17.25336937 6.376245-25.69251751 3.0943547-10.3145147 6.93885563-20.44149281 11.53350282-30.1933978 6.00117187-12.75249094 13.0337953-24.94237125 21.28540781-36.47587407 7.22016-10.12697812 15.284235-19.69134563 23.91091969-28.59933562 9.751905-10.03320938 20.44149281-18.94119938 31.78745812-27.09904312 10.12697812-7.31392875 20.91033374-13.50263719 31.97499563-19.12873593 8.53291687-4.31334282 17.44090687-7.87653844 26.53643251-11.06466095 7.50146531-2.62551281 15.09669844-4.78218374 22.87946905-6.56378156 8.72045344-1.96913438 17.53467467-3.75073219 26.5364325-4.59464719 8.064075-0.843915 16.12815001-1.50029344 24.19222499-1.5940622 9.56436844-0.18753657 19.12873593 0.75014625 28.69310439 1.5940622 8.34538031 0.843915 16.69075969 2.25043969 24.84860343 4.12580531 17.90974781 4.12580627 35.06934938 10.22074594 51.47880469 18.37858969 7.1263922 3.56319563 13.97147906 7.50146531 20.72279719 11.72103937 11.15842969 6.84508687 21.56671219 14.72162531 31.22484843 23.44207875 7.87653844 7.1263922 15.37800377 14.72162531 22.31685845 22.78570032 5.62609876 6.65755031 10.87712438 13.59640595 15.84684561 20.72279718 4.59464719 6.65755031 8.53291687 13.69017375 12.56495439 20.81656594 6.28247721 11.15842969 11.25219751 22.87946906 15.28423498 34.97558063 5.34479344 15.94061344 9.09552656 32.2563 10.87712439 49.04082845 0.75014625 8.53291687 1.31275594 17.0658328 1.12521937 25.59874967zM511.34362154 178.64739188c5.81363531 0 11.72103939 0.37507313 17.53467471-0.09376783 6.56378156-0.56260969 13.12756406-0.46884189 19.69134656-1.12522031 5.53233095-0.56260969 11.06466094-1.03145157 16.59699094-1.40652469 4.59464719-0.28130531 9.28306311-0.93768282 13.78394251-1.78159782 3.28189125-0.65637846 6.56378156-0.843915 9.751905-1.40652468 5.62609876-0.843915 11.15842969-1.96913438 16.78452749-3.00058592 10.78335657-1.87536656 21.37917562-4.40711062 31.97499562-7.22016 22.69193157-5.90740406 44.72748562-13.40886938 66.29419783-22.50439594 11.34596625-4.78218374 22.504395-9.93944156 33.3815203-15.56554031 21.00410249-10.68958781 41.16428998-22.87946906 60.29302594-36.56964188 7.87653844-5.7198675 15.75307687-11.53350281 23.34831001-17.53467469 6.376245-4.96972032 12.47118563-10.3145147 18.56612624-15.65930908 11.06466094-9.4705997 21.19163906-19.97265094 31.412385-30.19339685 3.56319563-3.56319563 6.376245-7.59523313 7.50146531-12.56495438 2.25043969-9.93944156 0.56260969-19.12873593-6.37624499-26.81773781-4.31334282-4.78218374-9.28306311-8.43914811-15.75307688-9.93944063-9.28306311-2.15667094-17.81598-0.28130531-25.5987497 5.06348907-2.43797626 1.68783001-4.50087938 3.84450094-6.56378249 6.09493968-4.96972032 5.43856219-10.12697812 10.68958781-15.56554031 15.56554031-4.40711062 3.84450094-8.62668469 7.97030625-12.94002655 11.81480813-9.4705997 8.34538031-19.22250469 16.22191875-29.44325158 23.62961438-8.72045344 6.376245-17.62844345 12.37741779-26.81773781 18.0972853-15.65930813 9.84567281-31.97499468 18.4723575-48.6657544 26.16135938-19.50380906 8.90799001-39.66399655 16.22191875-60.29302592 22.03555407-14.15901563 4.03203751-28.41179906 7.31392875-42.94588782 9.56436749-6.47001375 1.03145157-12.9400275 2.25043969-19.50380999 3.18812251-4.40711062 0.65637846-9.00175782 0.75014625-13.40886843 1.31275687-7.59523313 1.03145157-15.19046722 1.12521937-22.87946907 1.68783-8.53291687 0.65637846-17.0658328 0.843915-25.59874969 0.6563775-7.78276969-0.18753657-15.56554031-0.46884189-23.34831-1.21898812-0.93768282-0.09376875-1.78159781-0.09376875-2.71928156-0.18753657-6.75131906-0.09376875-13.40886938-1.03145157-20.1601875-1.78159781-6.65755031-0.75014625-13.40886938-1.68783001-20.06641877-2.71928062-8.72045344-1.40652469-17.34713815-3.0943547-25.9738228-4.96972125-12.28364906-2.71928155-24.47353031-6.00117187-36.38210624-9.84567282-9.93944156-3.1881225-19.87888219-6.75131906-29.53701844-10.78335563-12.09611249-4.96972032-23.91091969-10.3145147-35.53819125-16.22191874-20.1601875-10.3145147-39.38269219-22.31685843-57.66751312-35.63195906-9.37683187-6.75131906-18.28482094-14.06524686-27.19281094-21.47294438-5.15725686-4.31334282-10.03320938-9.00175782-15.00293065-13.596405-4.50087938-4.21957406-8.90799001-8.43914811-13.3151006-12.75249094-1.31275594-1.21898813-2.43797626-2.62551281-3.65696439-4.0320375-4.59464719-4.96972032-9.93944156-8.90799001-16.59699186-10.12697812-9.18929437-1.68783001-18.09728438-0.46884189-25.41121313 5.90740407-6.09494062 5.34479344-9.751905 12.09611249-9.84567281 20.44149187 0 2.71928155-0.28130531 5.43856219 0.37507313 8.064075 1.21898813 5.34479344 3.84450094 10.03320938 7.50146531 14.15901562 8.25161158 9.37683187 17.44090687 17.72221125 26.63020125 26.16135938 21.56671219 19.87888219 44.82125437 37.60109437 69.48232125 53.2604025 16.22191875 10.3145147 33.00644625 19.5975778 50.35358436 27.84918937 13.22133187 6.376245 26.8177378 12.00234375 40.50791158 17.15960153 10.40828249 3.93826875 20.91033374 7.40769654 31.50615376 10.59582002 10.78335657 3.1881225 21.66048096 6.09494062 32.63137311 8.43914814 9.09552656 1.96913438 18.19105312 3.75073219 27.28657969 5.34479344 6.93885563 1.21898813 13.97147906 1.96913438 20.91033374 2.90681812 7.31392875 0.93768282 14.62785655 1.50029344 21.94178532 2.15667094 5.34479344 0.46884189 10.78335657 0.46884189 16.12815 0.93768375 7.59523313 0.65637846 15.09669844 0.65637846 22.59816373 0.46884094z"  horiz-adv-x="1024" />

    


  </font>
</defs>
</svg>
